<svg xmlns="http://www.w3.org/2000/svg" version="1.1" xmlns:xlink="http://www.w3.org/1999/xlink" xmlns:svgjs="http://svgjs.dev/svgjs" width="128" height="128" viewBox="0 0 128 128"><g transform="matrix(0.20355731225296442,0,0,0.20355731225296442,50.901901185770754,12.760752631578953)"><svg viewBox="0 0 24 95" data-background-color="#ffffff" preserveAspectRatio="xMidYMid meet" height="506" width="128" xmlns="http://www.w3.org/2000/svg" xmlns:xlink="http://www.w3.org/1999/xlink"><g id="tight-bounds" transform="matrix(1,0,0,1,0.06487500000000068,-0.24049999999999727)"><svg viewBox="0 0 23.87025 95.481" height="95.481" width="23.87025"><g><svg viewBox="0 0 23.87025 95.481" height="95.481" width="23.87025"><g><svg viewBox="0 0 23.87025 95.481" height="95.481" width="23.87025"><g id="textblocktransform"><svg viewBox="0 0 23.87025 95.481" height="95.481" width="23.87025" id="textblock"><g><svg viewBox="0 0 23.87025 95.481" height="95.481" width="23.87025"><g><svg viewBox="0 0 23.87025 95.481" height="95.481" width="23.87025"><g><svg xmlns="http://www.w3.org/2000/svg" version="1.1" data-icon="info" data-container-transform="translate(48)" viewBox="48 0 32 128" x="0" y="0" height="95.481" width="23.87025" class="icon-icon-0" data-fill-palette-color="accent" id="icon-0"><path d="M24 0c-4.418 0-8 3.582-8 8s3.582 8 8 8 8-3.582 8-8-3.582-8-8-8z m-10 24c-6.6 0-12 5.4-12 12v4h2v-4c0-2.2 1.8-4 4-4s4 1.9 4 4-12 73.4-12 80c0 6.6 5.4 12 12 12s12-5.4 12-12v-4h-2v4c0 2.2-1.8 4-4 4s-4-1.9-4-4 12-73.4 12-80c0-6.6-5.4-12-12-12z" transform="translate(48)" fill="#0718c4" data-fill-palette-color="accent"></path></svg></g></svg></g></svg></g></svg></g></svg></g></svg></g><defs></defs></svg><rect width="23.87025" height="95.481" fill="none" stroke="none" visibility="hidden"></rect></g></svg></g></svg>